<svg xmlns="http://www.w3.org/2000/svg" width="113" height="112" fill="none" viewBox="0 0 113 112"><g clip-path="url(#a)"><rect width="112" height="112" x=".879" fill="#000" rx="19.091"/><g filter="url(#b)"><path fill="url(#c)" d="M.879 0h112v112h-112z"/></g><path fill="#fff" d="m35.755 70.06-1.462-5.593h-8.576l-1.462 5.594h-8.42l9.18-28.126h10.37l9.18 28.126zm-5.828-21.635-2.71 10.214h5.575l-2.71-10.214zm33.926 21.636V54.409h-.156l-10.33 15.652h-7.875V41.935h8.265v15.651h.156l10.33-15.651h7.874v28.126zm18.119-11.344v-6.042h3.645c2.222 0 3.625-1.033 3.625-2.73 0-1.714-1.403-2.747-3.723-2.747-2.339 0-3.918 1.344-3.918 3.313h-7.465c.04-5.71 4.542-9.356 11.559-9.356 6.783 0 11.227 3.06 11.227 7.719 0 3.255-2.164 5.77-5.38 6.334v.156c3.86.37 6.354 3.022 6.354 6.744 0 5.204-5.01 8.732-12.416 8.732-6.939 0-11.597-3.703-11.85-9.433h7.874c.04 1.89 1.618 3.04 4.152 3.04 2.26 0 3.761-1.228 3.761-3.04 0-1.696-1.442-2.69-3.84-2.69z"/></g><defs><linearGradient id="c" x1="56.879" x2="56.879" y1="0" y2="112" gradientUnits="userSpaceOnUse"><stop stop-color="#94ffcb"/><stop offset="1" stop-color="#48d79b"/></linearGradient><clipPath id="a"><rect width="112" height="112" x=".879" fill="#fff" rx="19.091"/></clipPath><filter id="b" width="113.273" height="113.273" x=".243" y="-.636" color-interpolation-filters="sRGB" filterUnits="userSpaceOnUse"><feFlood flood-opacity="0" result="BackgroundImageFix"/><feGaussianBlur in="BackgroundImageFix" stdDeviation=".318"/><feComposite in2="SourceAlpha" operator="in" result="effect1_backgroundBlur_1845_187"/><feBlend in="SourceGraphic" in2="effect1_backgroundBlur_1845_187" result="shape"/></filter></defs></svg>