<svg xmlns="http://www.w3.org/2000/svg" width="113" height="112" fill="none" viewBox="0 0 113 112"><rect width="111.866" height="111.866" x=".147" fill="url(#a)" rx="13.402"/><path fill="#fff" fill-rule="evenodd" d="M53.576 21.523c-8.255.554-15.959 3.977-21.87 9.72-6.231 6.055-9.932 14.08-10.48 22.726-.065 1.03-.065 3.338 0 4.366.545 8.607 4.21 16.595 10.384 22.63 5.979 5.843 13.728 9.293 22.063 9.82 1.021.065 3.338.066 4.341.002 7.716-.493 14.896-3.453 20.713-8.538.78-.683 2.557-2.456 3.204-3.2 4.745-5.454 7.623-11.973 8.406-19.04.146-1.319.198-2.331.198-3.857 0-.76-.023-1.742-.051-2.183-.487-7.699-3.46-14.886-8.576-20.737-.702-.803-2.46-2.55-3.292-3.272a34.63 34.63 0 0 0-20.578-8.44c-.921-.059-3.57-.056-4.462.003m4.656 3.05c2.132.172 4.22.537 6.132 1.073a31.71 31.71 0 0 1 22.38 23.545c.527 2.33.755 4.428.755 6.961s-.228 4.633-.754 6.961c-1.585 7.01-5.458 13.209-11.089 17.744-4.595 3.702-10.303 6.089-16.139 6.75a33.5 33.5 0 0 1-7.324 0c-9.802-1.11-18.65-6.894-23.67-15.471-2.449-4.185-3.833-8.64-4.25-13.68-.129-1.548-.07-4.185.131-5.966.602-5.317 2.66-10.593 5.823-14.93 3.928-5.387 9.448-9.425 15.685-11.475 2.828-.93 5.37-1.392 8.682-1.58.53-.03 2.995.016 3.638.068m-1.142 3.321c-.167.167-.158.373.024.526.141.12.406.185 1.033.258.242.028.279.046.279.134 0 .057-.087.681-.194 1.388-.234 1.562-.236 1.602-.058 1.8.11.123.184.158.376.176q.429.04.549-.34c.027-.086.14-.778.251-1.539.112-.76.208-1.388.215-1.396.006-.007.216.02.467.06.8.13 1.01.098 1.103-.168a.37.37 0 0 0-.15-.456c-.118-.078-3.204-.562-3.577-.562-.147 0-.23.031-.318.119m-3.682-.02c-.864.136-1.48.549-1.788 1.2-.147.311-.154.352-.152.908.002.482.02.628.109.849.226.568.65.962 1.258 1.172.282.097.418.113.959.11.555-.003.677-.02 1.013-.135.694-.24 1.115-.615 1.355-1.21.148-.366.144-1.204-.008-1.591-.242-.618-.612-.979-1.22-1.19-.387-.135-1.066-.185-1.526-.113m8.688.727a.65.65 0 0 0-.177.216c-.023.06-.207.852-.41 1.763-.35 1.57-.366 1.663-.3 1.823.153.365.764.438.969.116.039-.061.239-.865.444-1.785.405-1.819.412-1.913.163-2.099-.202-.15-.522-.165-.689-.034m-7.595.18c.35.178.549.472.626.927.162.966-.356 1.622-1.285 1.624-.384.001-.601-.075-.858-.3-.276-.243-.399-.58-.4-1.099 0-.51.093-.74.403-1 .257-.216.45-.277.883-.281.309-.003.41.017.63.13m-6.358.085c-.798.18-1.516.704-1.807 1.32-.143.3-.157.372-.157.79 0 .567.095.899.376 1.317.399.594.934.877 1.661.882 1.349.007 2.516-.84 2.52-1.827 0-.252-.015-.298-.135-.4-.157-.137-.403-.154-.615-.044-.142.073-.146.083-.3.679-.151.591-1.163.971-1.733.65-.533-.299-.854-1.336-.591-1.914.177-.39.707-.702 1.187-.7.228.002.48.113.83.366.2.144.272.171.406.15.525-.086.626-.54.205-.92-.385-.348-1.182-.499-1.847-.35m16.507.435a.6.6 0 0 0-.225.18c-.067.106-1.112 2.896-1.201 3.207-.09.313.184.617.556.617.3 0 .382-.128.781-1.213l.394-1.067c.015-.04.125.233.245.606.778 2.43.776 2.426 1.08 2.63q.163.111.378.111c.366 0 .409-.075 1.071-1.858.326-.875.592-1.652.592-1.727 0-.44-.694-.659-.918-.29-.049.08-.258.603-.465 1.163s-.385 1.009-.396.998c-.01-.01-.238-.693-.505-1.517-.268-.824-.52-1.55-.56-1.612-.08-.123-.42-.297-.576-.296a.8.8 0 0 0-.25.068m-20.678 1.097c-.192.08-.335.241-.367.412-.025.132.071.383.588 1.532.944 2.103.899 2.03 1.262 2.03.36 0 .668-.344.576-.642-.099-.319-1.402-3.134-1.495-3.228-.126-.128-.39-.177-.564-.104m-2.352 1.234c-.303.16-.39.417-.24.708.041.08.325.523.63.984.306.46.556.85.556.866 0 .015-.683-.2-1.516-.477-.834-.277-1.577-.504-1.652-.505-.33-.001-.664.324-.664.646 0 .182.098.351.982 1.682.862 1.298 1.001 1.485 1.138 1.523.294.08.693-.209.693-.502 0-.123-.403-.793-1.08-1.794-.098-.145-.172-.27-.165-.278.008-.007.667.204 1.466.47s1.524.483 1.611.484c.396.001.739-.278.738-.601 0-.177-.104-.358-.923-1.606-.508-.774-.972-1.455-1.03-1.515a.46.46 0 0 0-.544-.085m28.277.118a.6.6 0 0 0-.175.13c-.087.102-1.585 2.528-1.71 2.769-.12.233-.1.383.078.567.18.186 2.484 1.615 2.709 1.68.358.102.621-.263.408-.567-.039-.057-.52-.38-1.066-.719-.548-.338-.996-.631-.996-.65a4 4 0 0 1 .247-.435c.235-.383.251-.398.352-.335 1.746 1.105 1.953 1.194 2.165.924.113-.144.1-.313-.035-.463-.042-.047-.456-.318-.92-.602-.463-.284-.854-.535-.867-.557-.021-.034.353-.72.392-.72.007 0 .456.272.998.606 1.05.646 1.24.715 1.42.517.118-.13.103-.406-.03-.53-.136-.127-2.27-1.45-2.534-1.57-.212-.097-.29-.105-.436-.045m-15.365 2.04c-1.56.177-2.964.589-4.376 1.282-4.049 1.991-6.753 5.808-7.303 10.31-.071.58-.087 2.02-.031 2.743l.038.486-.44.189c-.913.39-2.208 1.2-3.056 1.909-2.487 2.08-4.111 4.993-4.616 8.28-.125.817-.15 2.603-.048 3.396a13.1 13.1 0 0 0 1.382 4.463c1.64 3.204 4.499 5.558 8.015 6.598.557.165 1.246.313 1.96.421.649.099 2.945.084 3.61-.023 2.176-.351 4.27-1.209 5.9-2.417.216-.16.408-.285.426-.277.017.008.318.206.667.439 4.763 3.18 11.09 2.876 15.591-.747.556-.448 1.604-1.514 2.042-2.078a13.4 13.4 0 0 0 2.668-6.216c.154-.997.154-2.764 0-3.77-.245-1.594-.771-3.156-1.51-4.486-.655-1.178-1.301-2.026-2.298-3.018-1.049-1.042-2.15-1.82-3.538-2.501l-.622-.305.037-.415c.06-.67.034-2.063-.052-2.743a13.2 13.2 0 0 0-2.552-6.33c-.586-.788-1.807-2.013-2.592-2.6a13.24 13.24 0 0 0-5.99-2.521c-.591-.093-2.71-.137-3.312-.069m2.784.701a12.54 12.54 0 0 1 6.445 2.709c.593.475 1.488 1.383 1.946 1.973 1.42 1.827 2.33 4.02 2.589 6.237.113.972.092 2.58-.045 3.373-.02.119.006.138.472.333 3.742 1.567 6.523 4.913 7.403 8.908.277 1.257.353 3.058.179 4.264-.414 2.868-1.659 5.326-3.7 7.3-1.847 1.787-4.07 2.904-6.685 3.357-.557.097-.792.11-2.013.108-1.277-.002-1.436-.012-2.086-.13-2.016-.365-4.01-1.24-5.516-2.42a3 3 0 0 0-.326-.236c-.013 0-.294.205-.624.455-1.694 1.284-3.648 2.106-5.805 2.441-.798.124-2.75.123-3.565-.003-3.862-.595-7.117-2.81-9.04-6.152-2.744-4.77-1.982-10.843 1.862-14.828 1.36-1.41 2.765-2.325 4.81-3.132a9 9 0 0 0-.068-.537c-.105-.754-.103-2.391.004-3.177.632-4.621 3.598-8.414 7.886-10.085.978-.381 2.396-.718 3.35-.795.594-.048 1.973-.028 2.527.037m-2.612 1.457c-2.492.317-4.72 1.416-6.45 3.181a10.3 10.3 0 0 0-2 2.814c-1.121 2.267-1.401 4.856-.797 7.382.069.29.118.533.109.542-.01.008-.302.092-.649.186-3.018.819-5.484 2.847-6.882 5.664-.778 1.567-1.11 3.003-1.11 4.8s.332 3.233 1.11 4.8a10.7 10.7 0 0 0 3.723 4.238c.584.392 1.664.936 2.323 1.172 2.44.873 5.207.835 7.601-.104a11.2 11.2 0 0 0 3.611-2.311l.336-.317.489.455c.91.846 1.74 1.42 2.769 1.917 1.55.75 2.977 1.077 4.705 1.08 1.764.003 3.285-.348 4.823-1.111 2.192-1.088 3.857-2.758 4.93-4.944.546-1.115.879-2.22 1.042-3.468.078-.591.079-1.97.002-2.595-.518-4.2-3.437-7.744-7.433-9.024l-.606-.193c-.037-.011-.017-.146.063-.42.344-1.19.49-2.85.358-4.075-.49-4.543-3.677-8.251-8.078-9.401-1.144-.299-2.848-.413-3.99-.268M77.73 69.764c-.42.153-.69.399-.926.846-.171.323-.166.937.01 1.308.161.34.431.61.77.77.22.105.336.127.655.126.497-.002.801-.13 1.13-.477.305-.324.422-.627.422-1.098 0-.615-.304-1.106-.862-1.39-.324-.166-.87-.204-1.199-.085m1.043.377c.452.214.7.612.702 1.122a1.207 1.207 0 0 1-1.236 1.235c-.862 0-1.435-.805-1.18-1.657.075-.25.374-.584.634-.71.298-.144.762-.14 1.08.01m-.922.34c-.126.056-.708.685-.7.756.002.014.2.19.44.39l.623.522.188.16.13-.17.128-.168-.18-.16a4 4 0 0 0-.235-.195q-.055-.034.053-.142c.104-.105.12-.106.428-.045l.32.064.142-.136c.079-.075.143-.152.143-.17 0-.054-.669-.205-.777-.177-.08.021-.096.001-.096-.119 0-.195-.073-.316-.242-.404-.169-.087-.178-.087-.365-.005m.243.467c.073.08.079.118.032.22-.083.182-.192.2-.337.054l-.127-.126.115-.123c.14-.148.202-.153.317-.025M74.06 72.79c-.374.187-.796.627-.986 1.028-.247.523-.174 1.027.201 1.383.453.429 1 .399 1.805-.1.438-.27.734-.42.833-.42.159 0 .356.147.407.304.098.296-.099.677-.46.89-.241.141-.332.144-.687.02-.356-.126-.411-.123-.59.028-.118.098-.15.164-.15.304 0 .243.095.361.391.489.61.262 1.232.082 1.802-.523.398-.422.539-.707.564-1.138.023-.41-.071-.681-.332-.95-.278-.286-.457-.366-.825-.367-.362 0-.581.087-1.298.52-.529.318-.693.367-.862.257-.242-.158-.12-.602.242-.877.16-.122.2-.131.453-.102.152.017.344.043.426.059.213.04.458-.169.458-.39 0-.338-.315-.56-.79-.56-.248 0-.37.029-.602.145m-36.004.957c-.418.157-3.307 1.559-3.408 1.653-.104.098-.133.168-.133.33 0 .169.026.226.15.33.081.069.196.125.253.125.058 0 .295-.09.527-.2l.422-.2.561.527c.395.37.553.549.53.6-.017.04-.095.256-.174.479-.125.354-.135.422-.084.548.1.24.395.344.65.228.159-.073.2-.165.922-2.022.647-1.668.69-1.84.517-2.122-.142-.233-.495-.366-.733-.276m-.194 1.051c0 .01-.099.25-.219.531s-.24.57-.267.64l-.048.127-.366-.327c-.2-.18-.347-.345-.325-.367.05-.05 1.14-.62 1.188-.622.02 0 .037.007.037.018m32.972.905c-.231.23-.18.427.26.999 1.045 1.355 1.204 1.58 1.255 1.77.068.253.035.385-.151.597-.341.388-.724.48-1.053.253-.1-.07-.519-.563-.932-1.098-.776-1.003-.937-1.151-1.184-1.09a.7.7 0 0 0-.245.145c-.148.137-.167.421-.041.606.236.345 1.376 1.796 1.547 1.968.622.626 1.274.658 2.091.102.869-.591 1.14-1.33.764-2.077-.147-.293-1.464-2.045-1.663-2.214-.194-.164-.461-.148-.648.039m-29.884.678c-.094.075-1.428 1.946-2.054 2.883-.179.267.048.705.365.705.222 0 .367-.157 1.026-1.11.369-.535.611-.846.62-.794.006.047-.006.653-.027 1.346-.022.694-.024 1.368-.003 1.499.042.272.175.439.41.516.187.062.425-.028.557-.21.287-.395 1.883-2.703 1.928-2.786a.45.45 0 0 0-.094-.567c-.335-.282-.466-.182-1.264.964l-.677.972.034-1.586.034-1.586-.172-.172c-.14-.14-.209-.172-.365-.172a.53.53 0 0 0-.318.098m24.954 2.448c-1.418.494-1.884 1.7-1.181 3.056.208.402.665.882.986 1.036.964.462 2.366-.077 2.81-1.08.417-.945-.199-2.483-1.186-2.964-.415-.201-.938-.22-1.429-.048m-20.436.457c-.525.206-.9.566-1.18 1.137-.311.632-.382 1.293-.194 1.823.34.965 1.727 1.588 2.708 1.216.415-.157.852-.585 1.096-1.07.514-1.028.42-1.936-.265-2.562-.602-.55-1.544-.787-2.165-.544m21.323.364c.402.168.838.85.887 1.387.037.407-.016.608-.22.834-.424.47-1.005.503-1.482.083-.501-.441-.762-1.357-.521-1.829.103-.203.325-.404.54-.49.178-.071.61-.063.796.015m-20.225.447c.425.145.705.542.705.997 0 .572-.447 1.344-.897 1.55-.495.225-1.111-.012-1.34-.516-.286-.628.212-1.808.861-2.04.25-.088.39-.086.671.01m15.51.282c-.294.07-.431.176-.469.36-.015.07-.06.618-.102 1.217a24 24 0 0 1-.088 1.103c-.008.007-.24-.457-.517-1.033-.299-.62-.552-1.084-.622-1.14-.137-.107-.205-.111-.628-.038q-.625.108-.605.51c.02.402.626 3.387.69 3.507.136.255.512.313.698.109.146-.162.134-.36-.083-1.464a24 24 0 0 1-.203-1.104c.006-.007.234.462.507 1.043.273.58.553 1.115.622 1.188.166.174.39.215.61.111.282-.134.31-.254.379-1.588.034-.66.07-1.19.08-1.18.011.01.115.511.23 1.112.116.6.235 1.136.264 1.19.174.326.715.246.807-.118.019-.076-.103-.811-.313-1.881-.316-1.618-.353-1.765-.469-1.865-.145-.126-.382-.138-.788-.04m-11.955.197a.6.6 0 0 0-.203.21c-.074.145-.707 3.334-.707 3.566 0 .086.053.188.142.278.186.185.388.188.586.008.139-.126.158-.193.362-1.243.119-.61.222-1.116.23-1.124.01-.009.221.49.472 1.109.712 1.759.744 1.813 1.116 1.863.249.033.41-.046.506-.248.077-.162.71-3.362.71-3.588 0-.085-.053-.188-.143-.277-.187-.188-.399-.19-.581-.008-.122.121-.154.237-.342 1.225-.114.6-.223 1.107-.241 1.127-.019.02-.283-.569-.588-1.31-.305-.74-.61-1.407-.676-1.482a.55.55 0 0 0-.642-.106m6.962.618c-.055.06-.28.42-.5.8-.221.38-.417.692-.437.692-.019 0-.236-.306-.482-.68-.47-.713-.618-.873-.811-.873-.152 0-.383.121-.422.22-.099.26-.045.375.678 1.436l.55.808.03.72c.016.397.053.782.081.857.111.294.537.35.77.102.114-.123.116-.14.104-.903l-.012-.776.559-.912c.645-1.053.69-1.154.604-1.361-.075-.18-.18-.24-.423-.24-.134 0-.218.033-.29.11" clip-rule="evenodd"/><defs><linearGradient id="a" x1=".147" x2="112.014" y1="0" y2="111.866" gradientUnits="userSpaceOnUse"><stop stop-color="#8929ad"/><stop offset=".545" stop-color="#436aac"/><stop offset="1" stop-color="#43b7b8"/></linearGradient></defs></svg>