<svg xmlns="http://www.w3.org/2000/svg" width="113" height="112" fill="none" viewBox="0 0 113 112"><rect width="112" height="112" x=".612" fill="#fff" rx="13.418"/><path fill="#fc4c4c" fill-rule="evenodd" d="M52.592 24.894c-4.984 5.264-5.552 15.725-1.21 22.268l3.333 5.017.433-8.243c.532-10.124 3.178-11.002 3.178-1.055 0 6.676-1.9 12.361-4.85 14.495-.68.493-.517 1.337.361 1.876.88.539 1.6 2.232 1.6 3.763s.65 2.783 1.445 2.783c.794 0 1.445-1.162 1.445-2.58 0-1.42.78-3.355 1.733-4.302 1.348-1.337 1.348-1.72 0-1.72-2.767 0-2.021-3.751 1.878-9.454 4.978-7.278 4.927-16.014-.128-21.973-4.515-5.324-4.965-5.366-9.218-.875M31.959 45.22c-3.816 1.085-3.04 5.956 1.695 10.654 3.286 3.261 5.529 4.19 10.113 4.19 7.282 0 7.496-1.577.655-4.814-6.8-3.216-5.52-4.507 1.559-1.572 2.987 1.24 5.736 1.955 6.102 1.59.369-.366-1.164-2.684-3.406-5.151-4.059-4.468-11.034-6.511-16.718-4.897m39.37.087c-3.387 1.23-8.668 6.453-8.668 8.576 0 1.554 1.003 1.504 5.28-.27 6.963-2.887 8.116-1.54 1.4 1.637q-10.172 4.814.433 4.814c10.236 0 19.945-11.485 12.184-14.414-3.894-1.468-7.227-1.575-10.628-.343M32.32 70.816c-1.987 1.127-6.451 2.072-9.922 2.1-5.514.045-6.216.399-5.576 2.824.445 1.689-.136 3.105-1.484 3.618-4.765 1.815.192 2.548 15.594 2.304 15.541-.245 16.193-.132 19.5 3.41 1.883 2.015 4.784 3.663 6.45 3.663s4.567-1.648 6.45-3.664c3.306-3.54 3.958-3.654 19.5-3.409 15.401.244 20.359-.489 15.594-2.303-1.348-.514-1.93-1.93-1.484-3.619.624-2.368-.04-2.774-4.54-2.774-2.9 0-7.607-.967-10.459-2.15-6.747-2.797-17.768-2.757-21.85.082-2.907 2.02-3.516 2.02-6.423 0-4.035-2.806-16.464-2.853-21.35-.082m21.731 2.92c2.69 2.416 2.968 2.418 5.608.047 4.437-3.983 12.802-4.353 21.477-.947 4.201 1.648 8.914 2.997 10.475 2.997s2.836.646 2.836 1.434c0 .867-6.184 1.433-15.66 1.433-15.304 0-15.7.082-17.308 3.584-2.333 5.08-7.275 4.513-9.354-1.075-.81-2.182-3.01-2.508-16.87-2.508-9.662 0-15.938-.565-15.938-1.434 0-.788 1.462-1.47 3.25-1.514 1.79-.044 6.177-1.333 9.753-2.864 7.707-3.3 17.539-2.917 21.731.847" clip-rule="evenodd"/></svg>