<svg xmlns="http://www.w3.org/2000/svg" width="112" height="112" fill="none" viewBox="0 0 112 112"><rect width="111.866" height="111.866" x=".014" fill="#9694ff" rx="13.402"/><path stroke="#fff" stroke-width="1.434" d="M70.848 55.168c0 11.838-9.406 21.41-20.978 21.41s-20.978-9.572-20.978-21.41 9.405-21.41 20.978-21.41c11.572 0 20.978 9.572 20.978 21.41Z"/><path fill="#fff" d="m50.058 51.37 17.767 40.024H32.29z"/><path fill="#121212" d="M41.985 79.75q0-.536.198-1.05a3 3 0 0 1 .595-.942q.39-.42.943-.67.562-.256 1.265-.256.843 0 1.472.356.627.347.934.926l-1.232.876a.97.97 0 0 0-.314-.446 1.1 1.1 0 0 0-.438-.215 1.7 1.7 0 0 0-.455-.066q-.348 0-.604.14a1.2 1.2 0 0 0-.413.356 1.7 1.7 0 0 0-.24.496q-.074.273-.074.545 0 .306.09.587.092.282.265.505.174.215.422.339.255.123.57.124.224 0 .455-.066.231-.075.422-.232a1 1 0 0 0 .29-.422l1.314.786a1.7 1.7 0 0 1-.58.736q-.405.305-.917.471-.512.157-1.017.157-.653 0-1.199-.256a3.2 3.2 0 0 1-.934-.695 3.3 3.3 0 0 1-.603-.975 3 3 0 0 1-.215-1.108m6.038 2.986v-5.87h1.613v4.464h2.662v1.406zm6.193-5.87h1.802l1.869 5.87H56.25l-.356-1.15h-1.562l-.348 1.15H52.34zm1.422 3.645-.521-2.066-.546 2.066z"/><path fill="#fff" d="M78.489 38.694q.44 0 .767.241.336.25.518.69.18.44.18 1.009 0 .284-.042.578a2 2 0 0 1-.138.509h.241q.431 0 .664-.26.233-.249.233-.75 0-.37-.13-.707a3.6 3.6 0 0 0-.379-.707l.76-.37a3.7 3.7 0 0 1 .439.914q.147.474.147.991 0 .967-.483 1.5-.483.544-1.38.544h-1.44q-.181 0-.26.06-.077.07-.094.216h-.94a9 9 0 0 1-.043-.284 2 2 0 0 1-.017-.207q0-.345.155-.526a.67.67 0 0 1 .38-.216l.232-.026a2 2 0 0 1-.586-.733 2.1 2.1 0 0 1-.207-.897q0-.45.18-.81.19-.354.51-.561.327-.199.733-.199m-.233 2.811q.104.095.207.155t.19.06h.456q.087-.206.13-.448.052-.24.052-.457 0-.448-.199-.742a.58.58 0 0 0-.508-.284.6.6 0 0 0-.328.095.7.7 0 0 0-.25.276.9.9 0 0 0-.095.43q0 .26.095.51.103.249.25.405m-1.104 6.651V47h2.535q.544 0 .794-.19a.62.62 0 0 0 .25-.526q0-.233-.12-.475a1.5 1.5 0 0 0-.337-.422 1.3 1.3 0 0 0-.483-.276h-2.64v-1.156h4.52V45h-.837q.294.172.492.44.207.267.31.612.113.354.113.742 0 .422-.156.69a.97.97 0 0 1-.405.413 1.6 1.6 0 0 1-.57.199q-.319.06-.646.06zm-.086 3.092q0-.552.18-.992.19-.44.518-.75.328-.301.75-.466.423-.164.889-.164.474 0 .897.164.422.165.75.466.327.31.509.75.19.44.19.992t-.19.983a2.14 2.14 0 0 1-1.26 1.216 2.5 2.5 0 0 1-.896.164q-.466 0-.889-.164a2.2 2.2 0 0 1-.75-.466 2.15 2.15 0 0 1-.517-.741 2.6 2.6 0 0 1-.181-.992m2.337-1.181q-.397 0-.707.155a1.2 1.2 0 0 0-.475.422 1.1 1.1 0 0 0-.172.604q0 .328.172.595.181.268.483.423.31.163.707.163.39 0 .699-.163.31-.156.483-.423.172-.267.172-.595 0-.336-.18-.604a1.2 1.2 0 0 0-.484-.422 1.5 1.5 0 0 0-.698-.156m-2.251 8.524v-1.156h2.535q.544 0 .794-.19a.62.62 0 0 0 .25-.525q0-.234-.12-.475a1.5 1.5 0 0 0-.337-.422 1.3 1.3 0 0 0-.483-.276h-2.64V54.39h4.52v1.044h-.837q.294.172.492.44.207.267.31.612.113.353.113.741 0 .423-.156.69a.97.97 0 0 1-.405.414 1.6 1.6 0 0 1-.57.199q-.319.06-.646.06zm-.88 1.024q-.035.154-.06.285-.026.139-.026.232 0 .165.086.268.078.112.293.215.207.104.587.216l4.519-1.785v1.199l-3.338 1.216 3.338 1.069v1.104l-5.416-1.898a1.6 1.6 0 0 1-.543-.319 1.4 1.4 0 0 1-.389-.526 1.6 1.6 0 0 1-.12-.974 2 2 0 0 1 .069-.302zm.88 11.667v-1.156h2.535q.535 0 .785-.19a.59.59 0 0 0 .259-.509q0-.337-.267-.646a1.4 1.4 0 0 0-.682-.431h-2.63v-1.156h2.535q.544 0 .794-.19.25-.18.25-.509 0-.336-.259-.647a1.4 1.4 0 0 0-.681-.43h-2.64V64.26h4.52v1.043h-.837q.44.26.673.69.242.431.242.992t-.276.87a1.2 1.2 0 0 1-.682.406q.465.276.707.699.25.431.25.966 0 .422-.155.681a1.04 1.04 0 0 1-.405.414 1.6 1.6 0 0 1-.57.198q-.319.06-.646.06zm-.086 3.093q0-.552.18-.992.19-.44.518-.75a2.4 2.4 0 0 1 .75-.466q.423-.165.889-.164.474 0 .897.164.422.165.75.466.327.31.509.75.19.44.19.992t-.19.983a2.14 2.14 0 0 1-1.26 1.216q-.422.165-.896.164-.466 0-.889-.164a2.2 2.2 0 0 1-.75-.466 2.15 2.15 0 0 1-.517-.741 2.6 2.6 0 0 1-.181-.992m2.337-1.182q-.397 0-.707.156a1.2 1.2 0 0 0-.475.422 1.1 1.1 0 0 0-.172.604q0 .328.172.595.181.267.483.422.31.165.707.164.39 0 .699-.163.31-.156.483-.423.172-.267.172-.595 0-.337-.18-.604a1.2 1.2 0 0 0-.484-.422 1.5 1.5 0 0 0-.698-.156m-.56 4.282h2.828v1.155h-2.579q-.517 0-.784.19-.26.19-.26.56 0 .225.087.44.094.225.276.406.18.19.457.319h2.803v1.156h-3.226q-.18 0-.258.06-.078.069-.095.216h-.94a4 4 0 0 1-.035-.294 1.4 1.4 0 0 1-.017-.207q0-.31.138-.508a.58.58 0 0 1 .397-.225l.362-.025a2 2 0 0 1-.698-.777 2.3 2.3 0 0 1-.233-1.043q0-.7.448-1.061.458-.363 1.328-.362m-1.777 7.038q0-.578.19-1.103.19-.527.56-.906l.75.414q-.328.405-.483.793a2.1 2.1 0 0 0-.155.76q0 .336.12.534.121.207.363.207.165 0 .25-.112a1 1 0 0 0 .164-.328q.07-.207.155-.509a8 8 0 0 1 .32-.836q.154-.336.387-.509.241-.165.613-.164a1.3 1.3 0 0 1 .767.224q.328.233.509.639.18.413.181.965 0 .484-.155.915a2.1 2.1 0 0 1-.483.784l-.733-.465q.268-.345.388-.656.13-.31.13-.63 0-.18-.044-.344a.6.6 0 0 0-.146-.259q-.096-.095-.276-.095a.37.37 0 0 0-.26.087.9.9 0 0 0-.154.275 14 14 0 0 0-.156.457q-.155.544-.319.915-.163.379-.405.569-.232.19-.647.19-.672 0-1.052-.492-.38-.491-.38-1.32M31.926 29.784q-.552 0-.992-.181a2.2 2.2 0 0 1-.75-.518 2.5 2.5 0 0 1-.483-.759 2.4 2.4 0 0 1-.164-.888q0-.638.285-1.164.292-.535.827-.854.536-.32 1.268-.32.733 0 1.26.32.526.319.784.836l-1.13.345a1 1 0 0 0-.388-.379 1.06 1.06 0 0 0-.534-.138q-.328 0-.604.172-.268.165-.423.475a1.5 1.5 0 0 0-.155.707q0 .397.155.707.165.302.431.483.268.173.596.173.207 0 .388-.07.189-.068.336-.19a.75.75 0 0 0 .216-.275l1.13.345a1.8 1.8 0 0 1-.458.604 2.2 2.2 0 0 1-.698.422 2.6 2.6 0 0 1-.897.147m2.755-6.382h1.155v4.847q0 .31.104.422a.4.4 0 0 0 .285.104q.137 0 .284-.035.147-.034.259-.086l.155.88a2.2 2.2 0 0 1-.543.172q-.31.06-.56.06-.544 0-.846-.284-.293-.293-.293-.828zm2.702 4.605v-2.829h1.156v2.58q0 .517.19.784.19.259.56.259a1.17 1.17 0 0 0 .846-.363q.189-.18.319-.457v-2.803h1.155v3.226q0 .18.06.259.07.077.216.095v.94a4 4 0 0 1-.293.034 1.4 1.4 0 0 1-.207.017.87.87 0 0 1-.509-.138.58.58 0 0 1-.224-.396l-.026-.363q-.302.458-.776.699a2.34 2.34 0 0 1-1.044.233q-.698 0-1.06-.449-.363-.456-.363-1.328m8.066 1.458q-.147.06-.354.138a2.6 2.6 0 0 1-.448.12 2.2 2.2 0 0 1-.474.052 1.5 1.5 0 0 1-.587-.112.96.96 0 0 1-.431-.354Q43 29.06 43 28.663v-2.596h-.596v-.889H43v-1.466h1.155v1.467h.949v.888h-.949v2.207q.01.234.13.337t.301.103.354-.06q.172-.06.276-.104zm3.293 0q-.147.06-.354.138a2.6 2.6 0 0 1-.448.12 2.2 2.2 0 0 1-.474.052q-.32 0-.587-.112a.96.96 0 0 1-.431-.354q-.155-.25-.155-.646v-2.596h-.596v-.889h.596v-1.466h1.155v1.467h.949v.888h-.949v2.207q.01.234.13.337t.301.103.354-.06q.172-.06.276-.104zm2.647.319q-.543 0-.983-.181a2.3 2.3 0 0 1-.75-.51 2.4 2.4 0 0 1-.483-.74 2.4 2.4 0 0 1-.164-.89q0-.646.284-1.18.294-.536.828-.854.543-.328 1.276-.328.743 0 1.268.328.526.318.802.853.285.526.285 1.139a3 3 0 0 1-.026.388h-3.493q.035.345.199.604.172.258.43.396.269.13.57.13.345 0 .647-.164a.9.9 0 0 0 .422-.449l.992.276q-.164.345-.474.613-.302.267-.716.422a2.7 2.7 0 0 1-.914.147m-1.182-2.708h2.363a1.3 1.3 0 0 0-.198-.595 1.06 1.06 0 0 0-.414-.397 1.15 1.15 0 0 0-.578-.147q-.31 0-.569.147a1.14 1.14 0 0 0-.414.397 1.4 1.4 0 0 0-.19.595m6.94-.897q-.526 0-.94.207a1.2 1.2 0 0 0-.596.578v2.734h-1.155v-4.52h1.06v.966q.243-.465.613-.733t.785-.293h.146q.052 0 .087.009zm2.68 3.605q-.543 0-.982-.181a2.3 2.3 0 0 1-.75-.51 2.4 2.4 0 0 1-.484-.74 2.4 2.4 0 0 1-.163-.89q0-.646.284-1.18.293-.536.828-.854.543-.328 1.276-.328.742 0 1.268.328.525.318.802.853.285.526.285 1.139a3 3 0 0 1-.026.388h-3.493q.035.345.198.604.173.258.432.396.267.13.569.13.344 0 .647-.164a.9.9 0 0 0 .422-.449l.992.276q-.164.345-.474.613-.302.267-.716.422-.413.147-.914.147m-1.18-2.708h2.362a1.3 1.3 0 0 0-.198-.595 1.06 1.06 0 0 0-.414-.397 1.15 1.15 0 0 0-.578-.147q-.31 0-.57.147a1.14 1.14 0 0 0-.413.397 1.4 1.4 0 0 0-.19.595m6.938-.897q-.525 0-.94.207a1.2 1.2 0 0 0-.595.578v2.734h-1.155v-4.52h1.06v.966a2.04 2.04 0 0 1 .613-.733q.37-.267.785-.293h.146q.052 0 .087.009zm2.31 3.605q-.579 0-1.105-.19a2.5 2.5 0 0 1-.905-.56l.414-.75q.405.327.793.482.397.155.76.155.335 0 .534-.12a.39.39 0 0 0 .207-.363.3.3 0 0 0-.112-.25 1 1 0 0 0-.328-.164 13 13 0 0 0-.509-.155 8 8 0 0 1-.836-.319 1.3 1.3 0 0 1-.51-.388q-.162-.242-.163-.612 0-.45.224-.768.234-.327.638-.509.414-.18.966-.18.483 0 .915.154.431.148.784.483l-.465.733a2.7 2.7 0 0 0-.656-.388 1.6 1.6 0 0 0-.63-.129q-.18 0-.344.043a.6.6 0 0 0-.26.147q-.094.095-.094.276 0 .164.086.258.094.087.276.156.191.069.457.155.543.155.915.319.378.164.569.405.19.233.19.647 0 .674-.492 1.052-.492.38-1.32.38"/><path stroke="#fff" stroke-width=".729" d="M26.669 32.283H73.07v58.745H26.669z"/></svg>