<svg xmlns="http://www.w3.org/2000/svg" width="112" height="113" fill="none" viewBox="0 0 112 113"><rect width="111.601" height="111.601" x=".014" y=".546" fill="url(#a)" rx="13.371"/><path fill="url(#b)" fill-rule="evenodd" d="M28.73 27.6c-.107.199-.147 1.873-.144 6.15.006 8.255.407 31.646.549 31.993.196.48.424.232.514-.557.076-.664 1.328-4.065 2.152-5.848.141-.306.33-.751.42-.989.317-.839 1.133-2.538 1.396-2.904.395-.552.444-1.262.349-5.1-.083-3.337-.15-4.292-.188-2.646-.01.42-.069.763-.131.763s-.09-.347-.062-.772c.037-.54.026-.623-.035-.278-.085.486-.087.488-.155.123l-.069-.37-.019.34-.019.34h-1.136c-.925 0-1.136.034-1.136.185q0 .185-.379.185c-.294 0-.378-.055-.378-.247 0-.136-.046-.247-.101-.247s-.078.194-.05.432c.032.265-.002.433-.088.433-.077 0-.14-.188-.14-.417 0-.23-.042-.605-.095-.834-.082-.361-.103-.3-.157.447-.155 2.115-.5-9.004-.504-16.158 0-2.675-.047-4.295-.123-4.295-.067 0-.189.122-.27.272m12.131 4.928c-2.533.047-4.73.125-4.882.174-.151.05-.3.153-.331.232-.042.106 2.69.137 10.94.122 11.177-.02 14.065.048 15.983.376 2.886.494 5.58 1.449 7.637 2.707 1.624.994 3.695 2.939 5.088 4.777 1.019 1.345 1.727 2.784 2.373 4.82.656 2.064.797 3.333.802 7.175.004 4.193-.392 6.604-1.555 9.466-1.293 3.184-2.513 4.91-5.63 7.967-1.706 1.673-3.133 2.7-4.486 3.23-.278.108-.846.338-1.262.51-1.663.686-2.473.939-4.166 1.301-2.99.64-3.907.689-12.993.694-4.577.002-8.156.035-7.952.072l.371.067-.354.091c-.414.107-1.142-.001-1.628-.242-.441-.219-.53-.686-.444-2.311.084-1.569.254-2.173 1.298-4.616.46-1.075 1.03-2.427 1.269-3.005s.486-1.162.55-1.298c.271-.578 2.746-7.072 3.72-9.763.32-.884.643-1.746.718-1.916s.245-.642.379-1.05c.262-.806.795-2.251 1.048-2.842.36-.846.43-1.16.244-1.09-.123.046-.152.005-.096-.138.044-.112.03-.195-.03-.184-.06.01-1.037.013-2.17.005l-2.06-.015.09-.273c.075-.234.04-.22-.244.092l-.331.367.316-.927c1.322-3.872 3-8.214 3.416-8.835.465-.696.21-1.12-.28-.465-.514.69-1.717 3.316-2.193 4.789-.088.272-.262.717-.386.989-.212.461-.52 1.288-1.384 3.707-1.504 4.217-4.1 10.694-7.676 19.156a1240 1240 0 0 0-3.73 8.875c-1.676 4.054-2.175 5.85-1.843 6.635.336.794-.45.755 14.171.708 12.81-.041 13.349-.052 15.175-.31 4.343-.61 6.745-1.258 9.789-2.634.933-.422 1.754-.807 1.823-.855.07-.047.524-.296 1.01-.553 3.993-2.108 7.199-5.108 9.191-8.603.499-.874.534-.977.339-.977-.07 0-.126.08-.126.178a.35.35 0 0 1-.148.268c-.104.063-.119.019-.05-.148a3 3 0 0 0 .122-.36c.014-.068.135-.318.267-.556.133-.238.308-.6.39-.803.081-.204.357-.844.613-1.421 1.215-2.743 2.354-6.288 2.673-8.322.156-.99.181-1.819.12-3.913-.043-1.462-.134-2.991-.202-3.399a27 27 0 0 1-.203-1.606c-.043-.476-.129-.884-.19-.907-.06-.022-.11-.12-.11-.216 0-.26-.253-.212-.54.103-.17.189-.27.228-.309.124-.03-.085-.165-.155-.298-.155s-.242-.056-.242-.123c0-.068-.114-.124-.252-.124-.326 0-.33.339-.006.613.236.2.188.212-.994.237-1.345.03-1.66-.093-1.643-.643.007-.226.04-.205.212.133l.204.401h.987c.574 0 .987-.051.987-.123s-.417-.124-.999-.124h-.998l-.09-.515c-.072-.42-.11-.475-.21-.3-.117.202-.134.202-.308-.01-.167-.205-.177-.187-.105.207.043.238.106.53.14.65.035.118.037.215.005.215-.092 0-.493-1.273-.494-1.573-.001-.152-.045-.25-.098-.218s-.126-.052-.162-.188c-.036-.135-.015-.215.047-.177.062.037 0-.19-.138-.505-.137-.315-.25-.62-.25-.677 0-.131-.803-1.874-1.167-2.532-.339-.613-.784-1.263-1.145-1.67-.152-.17-.445-.532-.653-.803-.463-.605-2.198-2.324-2.968-2.94-.312-.25-.636-.511-.72-.58s-.187-.124-.23-.124c-.042 0-.257-.135-.478-.3-.744-.555-2.916-1.56-4.315-1.997-2.815-.88-4.605-1.117-9.656-1.285-3.99-.133-8.538-.13-15.904.006m8.892 12.285c-.135.1-.176.183-.092.185.085.002.127.074.093.16-.044.113.087.143.497.111q1.134-.09 1.727.876c.177.289.7 1.526 1.16 2.75s1.242 3.253 1.738 4.51a605 605 0 0 1 1.402 3.585l.93 2.41c.235.611.623 1.612.861 2.224.239.612.947 2.447 1.575 4.078 1.516 3.938 2.017 4.988 2.61 5.466.601.485.882.533 2.013.34 1.069-.181 1.86-.498 2.438-.977.408-.338.554-.717.253-.658-.11.022-.18-.279-.236-1.02-.09-1.188-.222-1.558-2.83-7.989a363 363 0 0 1-1.969-4.925 26 26 0 0 0-.619-1.513c-.136-.288-.247-.552-.247-.587s-.205-.578-.455-1.207c-.25-.628-.764-1.92-1.141-2.872-1.053-2.653-1.26-3.08-1.361-2.822a.294.294 0 0 0 .11.36c.211.152.266.423.085.423-.187 0-.392-.318-.42-.653-.015-.175-.067-.294-.115-.265s-.06.158-.025.286 0 .27-.075.316c-.076.046-.136.177-.135.292.001.164.025.173.11.041.076-.117.135-.126.195-.03.047.075.03.136-.039.136s-.15.125-.18.278l-.054.278-.017-.278c-.017-.263-.07-.278-1.027-.278-.926 0-1.01-.02-1.01-.247 0-.136-.08-.247-.177-.247-.116 0-.155.086-.112.247.049.183.004.247-.173.247-.132 0-.321-.111-.421-.247s-.227-.247-.28-.247c-.055 0-.1.111-.1.247q0 .247.253.247c.33 0 .323.268-.013.474-.146.09-.228.103-.182.03s.024-.133-.05-.133c-.073 0-.133-.077-.133-.17s-.18-.244-.4-.333-.335-.184-.254-.21c.105-.035.11-.116.016-.288-.072-.132-.09-.308-.038-.392.072-.118.052-.12-.091-.006-.153.12-.225.047-.421-.433-.288-.701-.873-1.34-1.447-1.576-.552-.228-1.416-.225-1.727.005m33.645 1.919c0 .068.06.124.134.124.073 0 .098-.056.055-.124s-.103-.124-.133-.124-.056.056-.056.124m-35.973.687c0 .106.058.158.128.115s.096-.13.056-.193c-.108-.171-.184-.14-.184.078m.379.178c0 .136.021.247.048.247s.078-.111.114-.247.015-.247-.048-.247-.114.111-.114.247m-17.293.37c0 .069.057.124.126.124.07 0 .127-.055.127-.123a.125.125 0 0 0-.127-.124.125.125 0 0 0-.126.124m2.903.063c0 .152-.195.18-1.104.16l-1.105-.025 1.042-.042c.572-.023 1.041-.095 1.041-.16s.029-.119.063-.119c.035 0 .063.084.063.186m25.062.133c-.303.218-.742.231-.668.021.03-.085.171-.138.315-.117.143.02.3-.026.348-.102.048-.075.123-.101.169-.057.044.044-.029.159-.164.255m-15.393.513c-.042.041-.076.006-.076-.077s-.057-.117-.126-.075c-.07.042-.126-.05-.126-.206v-.282l.202.283c.111.155.168.316.126.357m15.826.813c.001.055-.055.066-.124.024-.07-.042-.125-.17-.124-.286.001-.18.018-.183.124-.023.067.102.123.23.124.285m-29.32.176c-.032.12-.06.052-.063-.152s.024-.303.058-.219c.035.084.037.25.005.37m51.295 18.283a2 2 0 0 1-.083.37c-.07.216-.066.216.072.006.08-.122.117-.288.083-.371-.045-.108-.065-.11-.073-.005" clip-rule="evenodd"/><path fill="url(#c)" fill-rule="evenodd" d="M27.39 30.28c-.107.197-.147 1.871-.144 6.148.006 8.255.407 31.646.55 31.993.195.48.424.232.514-.556.075-.664 1.327-4.065 2.151-5.849.142-.306.33-.75.42-.988.317-.84 1.133-2.539 1.396-2.905.395-.551.444-1.262.35-5.099-.083-3.338-.151-4.292-.19-2.647-.009.42-.068.764-.13.764s-.09-.348-.062-.773c.037-.539.026-.623-.034-.278-.085.486-.088.488-.156.124l-.069-.371-.019.34-.019.34h-1.136c-.925 0-1.136.034-1.136.185q0 .186-.378.186c-.295 0-.38-.055-.38-.248 0-.136-.044-.247-.1-.247s-.078.195-.05.433c.032.264-.002.432-.088.432-.077 0-.14-.187-.14-.417s-.042-.605-.094-.834c-.082-.36-.104-.3-.158.448-.154 2.114-.5-9.004-.503-16.159-.001-2.675-.048-4.294-.124-4.294-.067 0-.188.122-.27.271m12.132 4.926c-2.534.047-4.731.126-4.883.175-.151.049-.3.153-.33.231-.043.107 2.69.137 10.94.122 11.176-.02 14.064.048 15.983.377 2.885.493 5.58 1.449 7.636 2.707 1.624.994 3.695 2.938 5.088 4.777 1.02 1.345 1.727 2.783 2.374 4.82.655 2.063.796 3.332.8 7.175.005 4.193-.39 6.603-1.553 9.466-1.294 3.184-2.514 4.91-5.631 7.967-1.706 1.672-3.133 2.7-4.486 3.229-.278.108-.846.338-1.262.51-1.663.686-2.472.94-4.165 1.302-2.992.64-3.908.688-12.994.693-4.577.003-8.156.035-7.952.072l.371.067-.354.092c-.414.106-1.142-.002-1.628-.243-.44-.218-.53-.686-.444-2.31.084-1.57.254-2.174 1.298-4.616.46-1.076 1.03-2.428 1.269-3.006s.486-1.161.55-1.297c.271-.579 2.746-7.073 3.72-9.764.32-.883.643-1.745.718-1.915s.246-.643.379-1.05c.262-.806.795-2.252 1.048-2.843.36-.845.43-1.16.244-1.09-.122.047-.152.005-.096-.137.044-.112.03-.195-.03-.185s-1.037.014-2.17.005l-2.06-.014.09-.274c.075-.234.04-.22-.244.093l-.331.366.316-.927c1.322-3.872 3-8.214 3.416-8.835.465-.695.21-1.12-.28-.465-.514.69-1.716 3.316-2.193 4.79-.088.271-.262.716-.386.988-.212.462-.52 1.289-1.383 3.708-1.505 4.216-4.1 10.694-7.677 19.155-2.284 5.406-2.9 6.873-3.729 8.875-1.677 4.055-2.176 5.85-1.844 6.636.336.794-.45.755 14.171.708 12.81-.042 13.35-.053 15.175-.31 4.343-.611 6.746-1.258 9.789-2.634.933-.423 1.754-.807 1.823-.855.07-.048.524-.297 1.01-.553 3.993-2.108 7.2-5.109 9.192-8.604.498-.874.534-.976.338-.976-.07 0-.126.08-.126.178a.35.35 0 0 1-.148.267c-.104.063-.119.02-.05-.147.052-.13.108-.292.122-.36.015-.068.135-.318.267-.556.133-.238.308-.6.39-.804.081-.203.358-.843.614-1.42 1.214-2.744 2.353-6.288 2.672-8.323.156-.99.181-1.818.12-3.913-.043-1.461-.134-2.99-.202-3.398a27 27 0 0 1-.202-1.607c-.044-.476-.13-.884-.19-.906-.062-.023-.111-.12-.111-.217 0-.26-.253-.212-.54.103-.17.189-.27.229-.308.124-.032-.085-.166-.154-.299-.154s-.242-.056-.242-.124-.114-.124-.252-.124c-.326 0-.329.34-.006.614.236.2.188.21-.994.237-1.345.03-1.66-.094-1.643-.643.007-.227.04-.206.212.132l.204.402h.987c.574 0 .987-.052.987-.124s-.417-.123-.998-.123h-1l-.088-.515c-.072-.42-.112-.476-.212-.3-.115.202-.133.202-.306-.01-.168-.206-.178-.187-.106.207.043.238.106.53.14.649.035.118.037.216.006.216-.093 0-.494-1.274-.495-1.574-.001-.151-.045-.25-.098-.217-.053.032-.125-.053-.162-.188-.036-.135-.014-.215.047-.178.062.038 0-.19-.138-.504-.137-.315-.25-.62-.25-.677 0-.132-.803-1.874-1.166-2.532-.34-.614-.785-1.263-1.146-1.67a18 18 0 0 1-.653-.804c-.463-.605-2.197-2.324-2.968-2.94-.312-.25-.636-.51-.72-.58-.084-.068-.187-.124-.23-.124-.042 0-.257-.135-.478-.3-.744-.554-2.916-1.56-4.315-1.996-2.815-.88-4.605-1.118-9.656-1.286-3.99-.132-8.538-.13-15.903.006m8.89 12.285c-.134.1-.175.183-.09.185s.126.074.092.16c-.044.114.087.144.497.112q1.135-.09 1.727.875c.178.29.7 1.527 1.16 2.75a369 369 0 0 0 1.738 4.511 638 638 0 0 1 1.402 3.584l.93 2.41a1618 1618 0 0 1 2.437 6.303c1.515 3.938 2.017 4.987 2.61 5.466.6.485.88.532 2.012.34 1.069-.182 1.86-.499 2.438-.978.408-.337.554-.716.253-.657-.11.021-.18-.28-.236-1.02-.09-1.189-.221-1.558-2.83-7.99a365 365 0 0 1-1.969-4.925 26 26 0 0 0-.618-1.512c-.137-.288-.248-.553-.248-.588s-.205-.578-.455-1.206c-.25-.629-.764-1.921-1.141-2.873-1.053-2.653-1.26-3.08-1.36-2.822a.294.294 0 0 0 .11.361c.21.151.265.422.084.422-.187 0-.392-.318-.42-.652-.015-.175-.067-.295-.115-.266-.048.03-.06.158-.025.286.034.129 0 .27-.075.316-.076.046-.136.178-.135.293.001.164.025.173.11.04.076-.116.135-.125.195-.03.047.075.03.137-.038.137-.07 0-.15.125-.18.278l-.055.278-.017-.278c-.016-.264-.07-.278-1.027-.278-.926 0-1.01-.02-1.01-.248 0-.135-.08-.247-.177-.247-.116 0-.155.087-.112.248.049.183.004.247-.173.247-.132 0-.321-.112-.421-.248-.1-.135-.227-.247-.28-.247-.055 0-.099.112-.099.248q0 .246.252.247c.331 0 .324.268-.013.473-.146.09-.228.103-.182.03s.024-.133-.05-.133c-.073 0-.133-.076-.133-.17s-.18-.243-.4-.333c-.22-.089-.335-.184-.254-.21.105-.035.11-.115.016-.288-.072-.132-.09-.308-.038-.392.072-.117.052-.119-.091-.006-.153.121-.225.047-.421-.432-.288-.702-.873-1.34-1.447-1.577-.551-.227-1.416-.225-1.727.006m33.646 1.92c0 .067.06.123.134.123.073 0 .098-.056.055-.124-.043-.067-.103-.123-.133-.123s-.056.056-.056.123m-35.973.686c0 .106.058.158.128.115s.096-.129.056-.192c-.108-.172-.184-.14-.184.077m.379.178c0 .136.022.248.048.248s.078-.112.114-.248c.037-.135.015-.247-.048-.247s-.114.112-.114.248m-17.293.371c0 .068.057.124.127.124a.126.126 0 0 0 .126-.124.125.125 0 0 0-.126-.123.125.125 0 0 0-.127.123m2.904.062c0 .153-.196.181-1.105.16l-1.104-.025 1.04-.042c.574-.022 1.042-.095 1.042-.16s.029-.118.063-.118c.035 0 .063.083.063.185m25.062.134c-.304.217-.742.23-.669.02.03-.084.171-.137.315-.117.143.02.3-.025.348-.101s.124-.102.169-.058-.029.16-.163.256m-15.394.513c-.041.04-.076.006-.076-.077 0-.084-.056-.118-.126-.076-.07.043-.126-.049-.126-.205v-.282l.202.282c.111.156.168.317.126.358m15.826.813c.001.054-.055.065-.124.023-.07-.042-.125-.17-.124-.285.001-.18.019-.184.124-.024.067.102.123.23.124.285m-29.32.175c-.032.12-.06.052-.063-.152-.002-.204.024-.302.058-.219a.7.7 0 0 1 .005.371m51.295 18.283a2 2 0 0 1-.083.37c-.07.216-.065.216.072.006.08-.121.117-.288.083-.37-.045-.109-.065-.11-.072-.006" clip-rule="evenodd" opacity=".3"/><defs><linearGradient id="a" x1="55.814" x2="55.814" y1=".546" y2="112.147" gradientUnits="userSpaceOnUse"><stop stop-color="#fffae8"/><stop offset="1" stop-color="#ffd8fb"/></linearGradient><linearGradient id="b" x1="84.386" x2="18.457" y1="25.358" y2="96.794" gradientUnits="userSpaceOnUse"><stop stop-color="#6c6c6c"/><stop offset="1" stop-color="#501699"/></linearGradient><linearGradient id="c" x1="83.047" x2="17.117" y1="28.036" y2="99.473" gradientUnits="userSpaceOnUse"><stop stop-color="#6c6c6c"/><stop offset="1" stop-color="#501699"/></linearGradient></defs></svg>