<svg xmlns="http://www.w3.org/2000/svg" width="113" height="113" fill="none" viewBox="0 0 113 113"><rect width="111.601" height="111.601" x=".615" y=".546" fill="url(#a)" rx="13.371"/><path fill="#fff" d="M22.935 84.181V28.447h21.43q9.263 0 15.464 3.768 6.28 3.69 9.42 10.048 3.219 6.28 3.219 13.973 0 8.477-3.533 14.758-3.454 6.279-9.812 9.733-6.28 3.454-14.758 3.454zm33.99-27.945q0-4.317-1.492-7.536-1.491-3.297-4.317-5.102t-6.75-1.806h-6.124v29.045h6.123q4.005 0 6.751-1.885 2.826-1.883 4.317-5.18 1.492-3.376 1.492-7.536"/><path fill="#000" d="M66.112 34.614h4.953l18.9 46.27h-6.257L78.234 67.33H58.813l-5.41 13.556h-6.256zM76.93 62.768l-8.342-21.376-8.602 21.375z"/><defs><linearGradient id="a" x1="56.415" x2="56.415" y1=".546" y2="112.147" gradientUnits="userSpaceOnUse"><stop stop-color="#ebef1c"/><stop offset="1" stop-color="#efda1c"/></linearGradient></defs></svg>