<svg xmlns="http://www.w3.org/2000/svg" width="113" height="112" fill="none" viewBox="0 0 113 112"><rect width="111.866" height="111.866" x=".879" fill="url(#a)" rx="13.402"/><path fill="#fff" fill-rule="evenodd" d="M35.906 52.053c-5.188 9.68-9.52 17.83-9.629 18.111s6.869.513 15.504.513h15.7V54.644H45.693l-1.205 2.375-1.206 2.375h8.77l.204 2.97.205 2.969h-8.416c-4.63 0-8.416-.086-8.416-.19 0-.266 11.67-21.658 13.099-24.008.666-1.098 1.66-1.93 2.305-1.93 1.033 0 1.133.471 1.133 5.344v5.344h5.315V34.454H45.338zm23.347.513v18.11h5.315V59.35l5.424.17 5.423.171 2.942 5.493 2.94 5.493h2.907c1.598 0 2.818-.22 2.709-.488s-4.45-8.415-9.647-18.103l-9.45-17.616-4.281-.008-4.282-.008zm12.993 1.808c0 .149-1.727.27-3.839.27h-3.839l.01-7.274.008-7.274 3.83 7.004c2.107 3.853 3.83 7.126 3.83 7.274M24.34 73.79a42 42 0 0 1-1.569 2.677l-.861 1.337h69.357l-1.483-2.524-1.482-2.524-31.628-.154-31.628-.153z" clip-rule="evenodd"/><defs><linearGradient id="a" x1=".879" x2="112.745" y1="111.866" y2="0" gradientUnits="userSpaceOnUse"><stop stop-color="#6f085a"/><stop offset="1" stop-color="#c51c53"/></linearGradient></defs></svg>