<svg xmlns="http://www.w3.org/2000/svg" width="112" height="113" fill="none" viewBox="0 0 112 113"><rect width="111.866" height="111.866" x=".082" y=".546" fill="url(#a)" rx="13.402"/><path fill="#fff" fill-rule="evenodd" d="M79.778 14.668c-.365.066-1.407.364-2.315.663-4.888 1.609-8.304 2.42-10.208 2.426-.743.002-1.081-.062-1.211-.229-.265-.341-.352-.306-1.376.554-.711.598-.975.93-1.105 1.393-.225.804-.005 1.32.7 1.634.616.275 1.499.15 3.373-.48.74-.25 1.615-.396 2.749-.462l4.188-.242c1.388-.08 2.551-.117 2.585-.08.147.156-4.897 6.067-5.79 6.784l-.543.437-2.355-.855c-1.294-.47-3.135-1.031-4.09-1.248a197 197 0 0 1-5.427-1.32c-2.544-.68-5.099-.978-8.538-.994-3.625-.017-4.003.043-7.452 1.178-3.286 1.08-7.979 3.42-9.787 4.879-1.793 1.446-2.449 2.051-3.671 3.385-1.44 1.572-1.954 2.192-1.954 2.36 0 .072-.202.402-.45.732-.665.89-1.961 3.93-2.431 5.703-1.01 3.81-1.098 4.59-1.098 9.752v4.487l.48 1.624c.67 2.26.83 2.689 1.535 4.114 1.26 2.546 3.315 4.933 5.763 6.693 1.07.77 3.914 2.31 5.509 2.983 3.26 1.377 6.1 1.977 9.396 1.987l1.41.005v4.486c0 2.468-.048 4.483-.108 4.478-.126-.01-.65-.4-1.898-1.412-.873-.708-1.915-1.154-2.904-1.243-.267-.024-.51.035-.542.131-.052.155.255.387 1.707 1.291.856.533 2.161 2.06 1.952 2.283-.306.328-6.768.468-9.132.197-1.499-.171-2.732-.608-3.236-1.146-.378-.405-.345-.794.086-.989.603-.273 1.341-.852 1.341-1.052 0-.151-.182-.217-.6-.217-.362 0-.9-.162-1.356-.409-.89-.482-1.22-.433-1.974.288-1.062 1.017-1.394 2.375-.856 3.503.358.75.423.8 1.914 1.478 3.155 1.435 8.123 1.92 13.798 1.344.716-.073 1.328-.107 1.36-.077.03.03-.017 1.118-.106 2.417-.09 1.3-.203 3.382-.252 4.627l-.09 2.264.518.57c.39.43.615.559.908.522.344-.044.427-.176.711-1.132.178-.596.379-1.397.447-1.78l.125-.696.39 1.315c.213.723.552 1.91.752 2.636.301 1.092.478 1.447 1.018 2.05.36.401.772.73.917.73.28 0 .967-.715 1.395-1.45.157-.272.319-1.031.413-1.944.168-1.614.096-2.38-.754-8.017-.345-2.294-.448-3.346-.339-3.463.066-.07.752-.303 1.526-.517 7.792-2.163 12.347-3.58 12.803-3.982.418-.37.146-.46-1.157-.385-2 .115-6.126.811-11.613 1.96-1.613.338-1.749.346-1.924.12-.157-.202-.234-1.11-.552-6.536-.044-.766-.024-1.67.046-2.01l.127-.616 1.079-.203c1.261-.238 1.733-.357 3.105-.783a52 52 0 0 1 1.375-.411 6 6 0 0 0 .651-.222l.694-.3c.223-.096.505-.174.627-.174.212 0 1.213-.442 3.206-1.414.91-.445 1.21-.791.936-1.084-.099-.106-.352-.058-.779.148-.789.381-1.72.71-2.658.941-1.605.395-2.605.61-2.646.566-.023-.025.454-.297 1.06-.605 3.53-1.793 6.793-4.254 8.765-6.615 1.683-2.015 4.001-6.026 5.037-8.716l.658-1.71.001-2.475c.001-2.591-.173-3.843-.815-5.85-.562-1.754-1.17-2.921-3.18-6.103-.131-.206-.705-.926-1.276-1.598-.92-1.083-1.016-1.254-.848-1.499.557-.81 3.371-3.734 3.673-3.815.397-.106 1.382.374 2.305 1.125 1.505 1.225 1.908 1.574 3.082 2.668 1.732 1.614 3.174 3.238 3.844 4.33.31.504.622.917.693.917s.203-.172.292-.382c.29-.68-.337-2.165-1.897-4.492-.74-1.103-3.517-3.865-4.956-4.93l-1.403-1.037 2.579-2.764c2.495-2.675 3.79-4.254 4.48-5.466.328-.577.831-.995.991-.824.1.108-.162 1.147-.531 2.103-.424 1.098-.688 1.878-.89 2.63-.102.383-.23.766-.283.85-.054.086-.214.891-.355 1.791-.205 1.304-.222 1.706-.084 1.982.303.605.515.358 1.244-1.451.178-.442.275-.55.34-.38.05.131.285.53.524.886.32.478.535.648.819.65.326.003.466-.154.923-1.04.296-.575 1.285-2.507 2.2-4.294.913-1.787 1.914-3.543 2.224-3.903.416-.484.563-.787.563-1.164 0-.443-.08-.553-.615-.847a10 10 0 0 0-1.4-.598c-.723-.24-.835-.241-1.447-.013-1.479.553-3.34.88-3.34.587 0-.292.404-.428 1.375-.463 1.078-.04 1.869-.231 2.28-.552.206-.162.225-.279.105-.648-.221-.679-1.182-.99-2.983-.967-.785.01-1.727.072-2.092.138m.013 1.98c0 .413-1.761 1.03-3.312 1.16-.905.076-.783-.022.707-.568 1.648-.604 2.605-.821 2.605-.591m-28.66 8.763c-.902.355-1.75.453-1.887.218-.157-.268.345-.403 1.533-.413l.868-.007zm-5.13 1.325c.242.094.147.189-.578.575-6.207 3.307-12.044 7.224-13.858 9.3-.38.435-.81.86-.958.944s-.818.904-1.49 1.822c-1.271 1.737-2.63 4.117-3.448 6.041-.262.618-.508 1.091-.546 1.051-.226-.242.946-3.943 1.887-5.956.937-2.004 2.69-4.6 4.231-6.261 1.38-1.49 1.88-1.913 3.69-3.127 1.103-.74 5.518-3.054 7.525-3.945 1.51-.67 1.738-.73 2.46-.647.438.05.926.142 1.086.203m14.037.155c2.13.19 3.66.426 6.44.994.997.204 2.468.652 2.597.79.1.107-.46.806-1.73 2.16-1.821 1.943-1.888 1.997-2.276 1.825-2.61-1.154-3.374-1.442-4.741-1.787-.876-.22-2.048-.472-2.605-.558s-1.486-.23-2.065-.322c-.578-.09-2.263-.165-3.744-.165-2.288 0-2.957.058-4.451.381-5.737 1.242-10.541 4.644-13.65 9.667-.896 1.446-2.332 4.57-2.707 5.888-.133.468-.299.963-.368 1.1-.168.335-1.094 4.57-1.307 5.98-.189 1.247-.082 3.918.18 4.485.341.743.5.379.6-1.38.054-.95.155-2.011.226-2.359.07-.347.201-1.119.292-1.714.415-2.717 1.265-5.795 1.818-6.576.09-.127.342-.684.56-1.238.763-1.934 2.314-4.008 5.23-6.987 2.46-2.514 4.785-3.787 8.171-4.474 1.212-.245 4.984-.362 5.303-.164.233.145.207.167-.193.172-2 .02-6.094 1.966-9.016 4.286-2.666 2.117-5.698 5.631-6.725 7.796-.547 1.152-1.45 3.482-2.038 5.257-.603 1.822-.802 3.807-.644 6.426.101 1.672.527 4.104.864 4.94.72 1.782 1.098 2.582 1.322 2.8.147.141.232.318.19.392-.101.174-.828.171-1.491-.006a89 89 0 0 0-1.247-.319c-.398-.098-1.185-.42-1.75-.714-2.426-1.264-4.101-3.24-4.95-5.838-.505-1.544-.515-1.624-.515-3.974 0-2.615.239-3.955 1.207-6.78.704-2.052.942-2.493 2.462-4.544.358-.484.945-1.308 1.303-1.832.673-.983 2.035-2.363 3.546-3.592a43 43 0 0 0 1.793-1.567 15.4 15.4 0 0 1 1.881-1.463c1.323-.834 5.599-3.275 5.735-3.275.06 0 1.355-.48 2.876-1.066 3.224-1.243 3.537-1.347 4.5-1.498.399-.062.822-.13.941-.152.12-.022.673-.114 1.23-.204.558-.09 1.86-.334 2.895-.541 2.278-.457 1.945-.437 4.051-.25m-2.198 8.056c1.643.264 4.297 1.132 4.297 1.405 0 .14-.905 1.383-2.027 2.784-.674.84-.742 1.29-.215 1.432.552.148 1.151-.264 2.716-1.865.778-.797 1.486-1.448 1.574-1.448.195 0 1.706 1.09 2.555 1.844.855.76 1.7 1.971 1.914 2.746.16.583.14.77-.22 1.934-.545 1.77-2.065 4.924-3.046 6.32-1.709 2.431-4.614 5.222-6.689 6.425a67 67 0 0 0-1.989 1.237c-1.538.992-5.166 3.056-6.796 3.867-1.726.86-3.262 1.405-5.215 1.85-5.021 1.148-5.088 1.162-5.705 1.162-1.396 0-3.104-2.258-3.794-5.018-.416-1.663-.376-4.952.087-7.145.822-3.893 2.023-7.1 3.422-9.14 1.478-2.154 3.56-4.376 4.58-4.886.178-.09.325-.216.325-.28 0-.145 1.857-1.1 3.328-1.711 1.245-.518 3.484-1.159 5.065-1.45 1.362-.25 4.462-.284 5.833-.063m12.248 11.05c.308 1.058.587 2.917.587 3.914 0 .792-.108 1.38-.42 2.289-.656 1.91-.864 2.37-1.459 3.217-.713 1.017-3.582 4.02-4.706 4.925-.783.63-5.382 3.096-7.959 4.266-2.002.91-3.533 1.365-3.777 1.125-.317-.312-1.2-.494-1.516-.313-.388.222-.562-.003-.565-.73-.002-.295-.147-.674-.364-.95-.2-.253-.362-.505-.362-.56s.44-.31.977-.567c4.422-2.114 6.63-3.332 8.357-4.61 1.298-.962 2.163-1.62 2.554-1.943.211-.174.58-.477.821-.673.825-.671 2.605-2.428 3.223-3.181 1.735-2.112 2.805-4.044 3.525-6.364.21-.681.418-1.343.46-1.47.071-.215.145-.023.624 1.624M65.67 62.128c-2.24 2.232-4.065 3.48-6.718 4.593-.756.318-1.44.634-1.52.702-.079.069-.643.303-1.253.521-1 .358-1.822.552-3.496.826l-.554.09.047-.517c.045-.494.09-.53.988-.802 2.018-.612 6.466-2.216 6.967-2.512.29-.172 1.274-.743 2.186-1.269a68 68 0 0 0 2.728-1.659c.588-.386 1.135-.703 1.215-.704.08 0-.186.329-.59.731M47.23 64.37c0 .192.122.43.27.529.316.211.515 1.41.282 1.709-.198.255-1.27.246-3.735-.033-1.896-.215-2.989-.448-3.228-.69-.139-.141.271-.255 3.409-.95 1.229-.272 2.432-.65 2.512-.787.155-.269.49-.117.49.222m-12.66 1.36c.477.09 1.298.215 1.825.276.664.077 1.132.235 1.53.517.832.588 2.595 1.516 3.363 1.769.364.12 1.28.25 2.037.29 4.365.228 4.62.27 4.628.762.003.182-5.891-.01-7.03-.23-1.898-.367-5.105-1.62-7.15-2.793-1.76-1.01-1.687-1.064.797-.591m16.108 19.99c.09.446.233 1.368.317 2.05.084.68.215 1.585.291 2.01.076.426.201 1.296.278 1.935a83 83 0 0 0 .435 2.94c.333 2 .35 2.218.17 2.1-.07-.046-.3-.903-.514-1.905-.214-1.001-.48-2.238-.593-2.749-.112-.51-.338-1.624-.502-2.475a56 56 0 0 0-.424-2.047c-.072-.285-.071-.75 0-1.083.07-.32.13-.81.131-1.086.005-.767.227-.6.411.31m9.833 8.093c-.415.24-.87 1.008-.912 1.537-.13 1.66 1.694 2.83 2.972 1.904.725-.525 1.008-1.438.719-2.324-.385-1.18-1.734-1.723-2.78-1.117m1.773.301c.233.129.498.383.589.565.231.462.192 1.524-.066 1.8-.19.204-.25.17-.512-.29-.253-.446-.265-.54-.082-.649.307-.184.264-.846-.067-1.035-.154-.088-.564-.16-.911-.16h-.632l.061 1.018c.04.661 0 1.08-.111 1.199-.26.274-.587-.295-.587-1.025 0-.481.1-.712.492-1.13.554-.593 1.12-.683 1.826-.293m-.517.68c.125.217-.07.634-.297.634-.118 0-.202-.16-.202-.387 0-.38.328-.542.499-.246m-.133 1.415c.126.26.371.531.546.603.308.126.304.137-.114.312-.454.19-1.305.099-1.452-.155-.05-.085.136-.149.429-.149.283 0 .515-.07.515-.154 0-.086-.065-.155-.145-.155s-.145-.174-.145-.387c0-.509.089-.488.366.085" clip-rule="evenodd"/><defs><linearGradient id="a" x1=".082" x2="111.948" y1="57.843" y2="57.843" gradientUnits="userSpaceOnUse"><stop stop-color="#f348a0"/><stop offset="1" stop-color="#dd46f5"/></linearGradient></defs></svg>