<svg xmlns="http://www.w3.org/2000/svg" width="113" height="113" fill="none" viewBox="0 0 113 113"><rect width="111.866" height="111.866" x=".216" y=".546" fill="url(#a)" rx="13.402"/><path fill="#fff" fill-rule="evenodd" d="M53.075 22.163c-.801.605-4.182 6.833-7.512 13.84-3.33 7.008-10.064 20.845-14.961 30.748-4.899 9.904-8.907 18.673-8.907 19.489s.621 2.104 1.38 2.865c1.204 1.203 5.409 1.38 32.805 1.38 29.327 0 31.52-.107 32.878-1.607.799-.884 1.453-2.253 1.453-3.042 0-2.035-28.816-60.402-31.001-62.794-2.03-2.222-3.982-2.502-6.135-.879m6.412 3.515c2.33 3.8 20.592 40.043 25.904 51.409 6.262 13.4 8.313 12.52-29.135 12.52-29.064 0-30.234-.066-31.937-1.77-1.747-1.747-1.749-1.81-.109-5.052.914-1.807 2.555-5.261 3.647-7.678 3.461-7.652 24.699-50.04 25.647-51.186 1.606-1.944 4.176-1.19 5.983 1.757m-6.479 7.193c-4.671 5.044-6.556 22.997-3.603 34.337 1.608 6.179 3.32 8.338 6.606 8.338 2.911 0 5.634-2.983 8.657-9.485 1.17-2.516 2.375-4.574 2.68-4.574.489 0 4.417 7.395 4.417 8.315 0 .199-1.255.484-2.787.636-4.47.442-4.2 2.472.329 2.472h3.838l2.83 5.742c2.907 5.896 4.804 7.56 6.586 5.778.77-.77-.738-4.535-6.204-15.495-3.971-7.963-7.63-14.478-8.131-14.478s-2.664 3.6-4.804 8c-2.141 4.402-4.351 8.553-4.91 9.228-1.73 2.085-3.463 1.367-4.999-2.07-2.894-6.476-1.178-34.04 2.188-35.144.597-.196 1.306.74 1.611 2.13 1.053 4.793 1.074 4.816 3.013 3.605 2.272-1.42 2.235-2.384-.23-6.044-2.553-3.79-4.45-4.136-7.087-1.291m-19.01 39.15c-4.23 8.543-5.397 11.664-4.648 12.413s2.202-1.392 5.778-8.522l4.777-9.525 1.324 2.602c.73 1.432 1.6 3.493 1.936 4.58.536 1.743.3 1.977-1.992 1.977-1.459 0-2.814.558-3.087 1.272-.376.979.462 1.333 3.636 1.538 3.808.246 4.245.52 5.672 3.561l1.546 3.296h11.802c11.242 0 11.867-.094 13.187-1.977l1.386-1.978-11.893-.244-11.895-.245-5.016-10.08c-2.759-5.545-5.432-10.08-5.94-10.08-.507 0-3.465 5.134-6.573 11.411" clip-rule="evenodd"/><defs><linearGradient id="a" x1="56.149" x2="56.149" y1=".546" y2="112.412" gradientUnits="userSpaceOnUse"><stop stop-color="#ff5e65"/><stop offset="1" stop-color="#e12a2a"/></linearGradient></defs></svg>