<svg width="129" height="129" viewBox="0 0 129 129" fill="none" xmlns="http://www.w3.org/2000/svg">
<rect x="0.409058" y="0.40918" width="128" height="128" rx="64" fill="white"/>
<path d="M25.8007 68.675L17.3568 77C15.8504 78.48 14.6347 79.22 13.7097 79.22C12.8904 79.22 12.4807 78.9293 12.4807 78.3479C12.4807 77.3964 13.485 76.0486 15.4936 74.3043C16.5243 73.4057 17.7796 72.6525 19.2596 72.0447L22.3121 68.675L20.0128 68.7543C19.0086 68.7543 18.5064 68.4636 18.5064 67.8822C18.5064 67.4065 19.1011 66.6136 20.2903 65.5036C21.4796 64.3936 22.4046 63.6933 23.0653 63.4026C24.1753 62.9004 25.3382 62.6493 26.5539 62.6493C26.9503 62.6493 27.1485 62.7551 27.1485 62.9665C27.1485 63.2043 26.6332 63.3761 25.6025 63.4818C24.7039 63.5876 24.2546 63.7593 24.2546 63.9972C24.2546 64.2879 24.466 64.4068 24.8889 64.354L25.1664 64.3143L27.3467 64.235C38.0767 54.9058 44.4063 50.2412 46.3356 50.2412C46.6792 50.2412 46.9963 50.413 47.287 50.7565C47.5777 51.0737 47.7231 51.4305 47.7231 51.8269C47.7231 52.3555 47.3927 53.2012 46.732 54.364L41.6974 63.244L44.0363 63.1647C44.2478 63.1383 44.6177 63.2176 45.1463 63.4026C44.1685 64.539 43.1774 66.0322 42.1731 67.8822L39.0017 68.0407L37.3763 70.895C36.7949 71.9257 36.5042 72.5468 36.5042 72.7582C36.5042 72.8904 36.5835 73.0357 36.7421 73.1943C36.9006 73.3529 37.0724 73.4322 37.2574 73.4322C37.7067 73.4322 38.8431 72.7186 40.6667 71.2915L41.3803 72.3222C37.8653 75.6786 35.2356 77.3568 33.4914 77.3568C32.8835 77.3568 32.3814 77.1586 31.9849 76.7621C31.5885 76.3393 31.3903 75.8239 31.3903 75.2161C31.3903 74.2382 31.7735 73.0622 32.5399 71.6879L34.3635 68.3975L25.8007 68.675ZM37.2971 63.4422L42.6885 54.4433C39.0149 57.0861 35.1828 60.2179 31.1921 63.8386L37.2971 63.4422ZM70.5585 51.3908C70.1621 51.2851 69.6864 51.2322 69.1314 51.2322C68.8142 51.2322 68.2857 51.2587 67.5457 51.3115C66.8057 51.3644 66.2375 51.3908 65.841 51.3908C65.5239 51.3908 65.0878 51.4172 64.5328 51.4701C63.9778 51.4965 63.4889 51.5494 63.0661 51.6287C62.6432 51.6815 62.1146 51.7608 61.4803 51.8665C59.7625 52.1308 58.2561 52.4612 56.9611 52.8576C55.0582 53.4654 53.4593 54.0733 52.1643 54.6812C50.5257 55.5004 48.9665 56.4387 47.4865 57.4958C46.7465 58.2622 46.3765 58.9361 46.3765 59.5176C46.3765 59.914 46.5879 60.284 47.0108 60.6276C47.4336 60.9711 48.0415 61.2883 48.8343 61.579C47.8829 61.8168 46.9447 62.0547 46.0197 62.2926C45.0947 62.5304 44.1697 62.7551 43.2447 62.9665C42.9011 62.9665 42.4254 62.7551 41.8176 62.3322C41.2097 61.9093 40.6811 61.3808 40.2319 60.7465C39.7826 60.1122 39.5579 59.5176 39.5579 58.9626C39.5579 58.7511 39.5976 58.5397 39.6769 58.3283C39.9676 57.5354 40.4036 56.8483 40.9851 56.2669C41.5665 55.659 42.3461 55.0379 43.324 54.4037C44.7776 53.4258 46.5615 52.5272 48.6758 51.708C51.0543 50.8094 53.5254 50.2015 56.0889 49.8844C57.4896 49.7258 58.7979 49.5937 60.0136 49.488C61.2557 49.3558 62.3261 49.2898 63.2246 49.2898C65.2068 49.2898 66.885 49.3294 68.2593 49.4087C69.6335 49.488 71.021 49.673 72.4217 49.9637C72.316 50.0165 71.9989 50.2676 71.4703 50.7169C70.9417 51.1662 70.6378 51.3908 70.5585 51.3908ZM57.08 55.1172C57.08 55.3815 56.9347 55.9497 56.6439 56.8219C56.3797 57.6676 56.1947 58.2886 56.0889 58.6851C56.0625 58.9229 55.8643 59.6629 55.4943 60.9051C55.1243 62.1472 54.6089 63.8915 53.9482 66.1379C53.314 68.3579 52.7722 70.2079 52.3229 71.6879C51.9 73.1414 51.6754 73.9211 51.649 74.0268C51.4375 74.6347 51.1865 75.2821 50.8957 75.9693C50.6315 76.6564 50.2482 77.3964 49.7461 78.1893C49.2704 78.9821 48.6493 79.7221 47.8829 80.4093C47.1165 80.9907 46.3897 81.2814 45.7026 81.2814C44.9361 81.2814 44.3018 80.9114 43.7997 80.1714C43.324 79.4578 43.0861 78.6121 43.0861 77.6343C43.0861 76.3129 43.4693 75.2689 44.2358 74.5025C44.5529 75.0839 44.9097 75.3746 45.3061 75.3746C45.8611 75.3746 46.469 74.8461 47.1297 73.7889C47.3147 73.4982 47.579 73.0886 47.9225 72.56C48.2661 72.005 48.5436 71.5425 48.755 71.1725C48.9665 70.7761 49.1911 70.3136 49.429 69.785C50.0632 68.1465 50.6315 66.5872 51.1336 65.1072C51.2129 64.8693 51.3847 64.3936 51.649 63.6801C51.9132 62.9401 52.204 62.0943 52.5211 61.1429C52.8647 60.1651 53.1686 59.3326 53.4329 58.6454C53.7236 57.9583 54.0275 57.1919 54.3447 56.3462C54.7147 56.2404 55.23 56.029 55.8907 55.7119C56.5514 55.3683 56.9479 55.1701 57.08 55.1172ZM67.2285 73.9079C67.0964 74.965 67.0171 75.52 66.9907 75.5729C66.8321 75.6521 66.5546 75.8371 66.1582 76.1279C65.7882 76.3921 65.3785 76.6432 64.9293 76.8811C64.5064 77.0925 64.0571 77.2643 63.5814 77.3964C63.2114 77.5021 62.8282 77.555 62.4318 77.555C61.7182 77.555 61.1368 77.4229 60.6875 77.1586C60.5818 77.1057 60.41 77.0264 60.1721 76.9207C59.9607 76.7886 59.7493 76.6696 59.5379 76.5639C59.3529 76.4318 59.1811 76.3129 59.0225 76.2071C58.8904 76.075 58.7714 75.9296 58.6657 75.7711C58.005 74.8989 57.6746 73.5511 57.6746 71.7275C57.6746 70.6704 57.7407 69.6925 57.8729 68.794C58.005 67.869 58.2164 66.7325 58.5071 65.3847C58.6129 64.6447 58.8507 63.6008 59.2207 62.2529C59.6171 60.9051 60.0004 59.5969 60.3704 58.3283C60.7668 57.0597 61.0179 56.2404 61.1236 55.8704C61.3614 55.6326 61.7843 55.3022 62.3921 54.8794C63.0264 54.4301 63.3832 54.1658 63.4625 54.0865C63.5153 54.0865 63.5682 54.1129 63.6211 54.1658C62.9075 56.6237 62.3261 59.2797 61.8768 62.134C61.6918 63.3233 61.5332 64.8297 61.4011 66.6533C61.2689 68.4768 61.2028 69.8907 61.2028 70.895C61.2028 71.8729 61.2689 72.6657 61.4011 73.2736C61.6125 74.1193 61.9561 74.7139 62.4318 75.0575C62.8282 75.3482 63.2775 75.4936 63.7796 75.4936C63.9646 75.4936 64.11 75.4936 64.2157 75.4936C64.4271 75.4671 64.6914 75.3746 65.0085 75.2161C65.3521 75.0575 65.8014 74.8064 66.3564 74.4629C66.9114 74.0929 67.2021 73.9079 67.2285 73.9079ZM73.4682 63.5611L79.7318 55.3551C75.4504 55.6987 71.909 56.3329 69.1075 57.2579C67.7597 57.7072 66.8215 57.9319 66.2929 57.9319C65.8965 57.9319 65.6983 57.7997 65.6983 57.5354C65.6983 57.2447 66.1211 56.4122 66.9668 55.0379C67.839 53.6372 68.4865 52.7519 68.9093 52.3819C69.7022 51.6947 71.4465 51.0869 74.1422 50.5583C76.8379 50.0033 79.56 49.7258 82.3086 49.7258C86.035 49.7258 89.0346 50.3469 91.3075 51.589C93.3689 52.7255 94.3996 54.7076 94.3996 57.5354C94.3996 59.8083 93.8578 61.7243 92.7742 63.2836C91.215 65.5565 88.9025 67.38 85.8368 68.7543C82.7975 70.1022 79.56 70.7761 76.1243 70.7761C75.4107 70.7761 73.9307 70.6968 71.6843 70.5382L70.0193 73.1943C70.5215 73.3 70.7725 73.5511 70.7725 73.9475C70.7725 74.2118 70.2043 75.1104 69.0679 76.6432C68.46 77.4625 68.09 77.9514 67.9579 78.11C67.4293 78.6386 66.9008 78.9028 66.3722 78.9028C65.5001 78.9028 65.064 78.4404 65.064 77.5154C65.064 76.6168 66.3458 74.0664 68.9093 69.8643C67.7729 69.0715 67.2047 68.2654 67.2047 67.4461C67.2047 66.6004 67.6408 65.9133 68.5129 65.3847C69.385 64.8297 71.0368 64.2218 73.4682 63.5611ZM76.0847 64.6315L75.2125 65.9C76.7718 66.0322 77.8686 66.0983 78.5029 66.0983C80.5114 66.0983 82.5861 65.6886 84.7268 64.8693C86.8675 64.0501 88.5193 63.0193 89.6821 61.7772C90.1842 61.2486 90.6203 60.5879 90.9903 59.7951C91.3867 59.0022 91.585 58.3547 91.585 57.8526C91.585 57.0861 90.7921 56.4651 89.2064 55.9894C87.6207 55.5137 85.2157 55.2362 81.9914 55.1569C81.965 55.9233 81.78 56.5312 81.4364 56.9804L76.9964 63.0061L77.6307 62.9665L78.8596 62.8476C78.9918 62.8211 79.19 62.8079 79.4543 62.8079C79.8507 62.8079 80.0489 62.9533 80.0489 63.244C80.0489 63.429 79.93 63.5743 79.6921 63.6801C79.4543 63.7593 78.7407 63.9311 77.5514 64.1954C77.0493 64.3011 76.5604 64.4465 76.0847 64.6315ZM108.172 56.2669C108.542 56.214 108.885 56.1876 109.202 56.1876C111 56.1876 112.11 56.8747 112.532 58.249C112.665 58.7247 112.731 59.2797 112.731 59.914C112.731 60.9976 112.519 62.2133 112.096 63.5611C111.7 64.909 111.211 66.204 110.63 67.4461C110.048 68.6618 109.467 69.7057 108.885 70.5779C106.56 73.9343 103.983 76.1543 101.155 77.2379C99.2785 77.8721 97.6928 78.1893 96.3978 78.1893C95.9485 78.1893 95.5125 78.1496 95.0896 78.0704C94.0061 77.8589 93.0678 77.2907 92.275 76.3657C91.5086 75.4407 90.9403 74.3572 90.5704 73.115C90.1739 71.8729 89.9757 70.6836 89.9757 69.5472C89.9757 69.4679 89.9757 69.4018 89.9757 69.349C89.9757 69.2697 89.9757 69.1904 89.9757 69.1111C90.1079 66.944 90.8611 64.7636 92.2353 62.5701C93.6096 60.3765 95.3143 58.3944 97.3493 56.6237C99.3842 54.8265 101.406 53.4258 103.415 52.4215C105.423 51.3908 107.062 50.8755 108.33 50.8755C109.017 50.8755 109.533 51.0472 109.876 51.3908C110.141 51.5494 110.563 52.0119 111.145 52.7783C111.753 53.5447 112.057 54.1262 112.057 54.5226C112.057 54.6547 112.004 54.7604 111.898 54.8397C111.845 54.8926 111.303 55.0908 110.273 55.4344C109.242 55.7779 108.542 56.0554 108.172 56.2669ZM97.7457 65.7811L97.6664 64.235C96.0014 65.9529 94.7857 68.2786 94.0193 71.2122C93.7021 72.2429 93.5436 73.0357 93.5436 73.5907C93.5436 74.1722 93.6757 74.6347 93.94 74.9782C94.2836 75.4011 94.7725 75.6125 95.4068 75.6125C96.0146 75.6125 96.715 75.4275 97.5078 75.0575C98.4592 74.6875 99.3842 74.2118 100.283 73.6304C101.208 73.0225 102.054 72.3486 102.82 71.6086C103.586 70.8686 104.313 70.0757 105 69.23C105.687 68.3579 106.335 67.4329 106.943 66.455C107.392 65.8208 107.947 64.79 108.608 63.3629C109.295 61.9093 109.638 60.7068 109.638 59.7554C109.638 58.804 109.202 58.2754 108.33 58.1697C106.93 58.1697 105.106 58.8701 102.86 60.2708C102.172 60.7201 101.512 61.2354 100.877 61.8168C100.27 62.3718 99.7146 62.9797 99.2125 63.6404C98.7103 64.2747 98.2214 64.9883 97.7457 65.7811Z" fill="#111111"/>
</svg>